<?xml version="1.0" encoding="UTF-8"?><svg id="a" xmlns="http://www.w3.org/2000/svg" width="50" height="50" viewBox="0 0 50 50"><rect x="1.71" y="10.05" width="16.78" height="7.88" fill="#3442ea" stroke-width="0"/><rect x="1.71" y="21.19" width="16.78" height="7.88" fill="#3442ea" stroke-width="0"/><rect x="4.1" y="32.33" width="38.07" height="7.88" fill="#3442ea" stroke-width="0"/><path d="M44.7,7v36.01H5.3V7h39.41M49.96,1.74H.04v46.52h49.92V1.74h0Z" fill="#3442ea" stroke-width="0"/><path d="M41.71,18.28v1.37c0,5.83-3.95,10.34-10.16,10.34s-10.46-4.51-10.46-10.34,4.08-10.31,10.46-10.31c5.81,0,8.23,2.87,9.31,4.89l-5.61,2.54c-.56-.97-1.52-1.99-3.7-1.99-2.63,0-4.36,2.2-4.36,4.88s1.74,4.88,4.36,4.88c2.1,0,3.34-.6,3.53-1.87h-3.59v-4.38h10.22Z" fill="#3442ea" stroke-width="0"/></svg>