<?xml version="1.0" encoding="UTF-8"?><svg id="a" xmlns="http://www.w3.org/2000/svg" width="84.13" height="90.14" viewBox="0 0 84.13 90.14"><path d="M83.9,48.63c-2.18-13.38-4.77-30.12-15.2-39.77C53.02-5.35,30.29-1.37,16.43,13.02c-3.43,4.22-6.86,8.85-9.01,13.94-2.73,4.57-4.89,9.44-6.52,14.53.17.53-.35.94-.26,1.46-.18.27-.12.57-.13.86-.3.2.04.6-.26.81.19,1.41-.51,2.81-.13,4.14-.02.93.14,1.87.26,2.76.85,4.8,4.57,8.6,7.61,12.31,2.38,3.03,5.82,4.47,9.28,5.91,3.01,1.84,2.35,5.5,2.42,8.52.6,3.48.95,7.23,2.97,10.33,6.49,5.37,6.24-7.48,9.76-10.11,3.17-1.22,1.94,5.94,2.54,7.74,1.12,5.03,8.5,5.32,10.01.3,1.19-2.35-.07-5.89,2.36-7.55,2.16-1.62,3.59,1.06,3.68,2.97-1.65,5.69.56,9.8,6.79,6.88,3.8-1.21,4.05-12.4,7.18-16.34,1.74-3.75,6.02-3.96,9.18-5.86,6.95-3.18,11-10.38,9.73-17.97ZM36.27,48.11c-2.14,4.28-6.34,7.99-11.05,8.43-.53.37-1.3-.14-1.84.25-5.38-.36-9.11-6.16-7.63-11.19,1.28-11.59,16.63-24.46,21.67-7.87.34.76.16,1.66.5,2.41-.11,1.02-.18,2.13-.24,3.21-.35,1.6-.6,3.25-1.41,4.77ZM41.09,65.93c-.27,1.03-1.75.21-2.42.64-.63-.04-1.97-.16-1.77-1.09,2.95-7.09,4.3-8.57,4.19.44ZM46.27,65.91c-1.86,1.24-2.58,1.52-2.73-1.05.02-1.28-.94-3.48.36-4.26,1.24.99,1.55,2.88,2.66,4.09.38.5.34.86-.29,1.22ZM69.68,44.66c-.1,5.98-5.1,12.44-11.55,11.35-5.87-.55-8.43-7.54-9.09-12.79-4.58-20.86,22.74-17.14,20.64,1.44Z" fill="#131616" stroke-width="0"/></svg>